<svg id="svg" version="1.1" xmlns="http://www.w3.org/2000/svg" xmlns:xlink="http://www.w3.org/1999/xlink" width="400" height="322.4669603524229" viewBox="0, 0, 400,322.4669603524229"><g id="svgg"><path id="path0" d="M170.044 26.187 C 142.196 36.034,57.483 66.734,41.438 72.794 C 24.436 79.216,19.393 89.822,28.570 99.858 C 32.648 104.317,29.785 103.136,82.819 122.253 C 105.595 130.462,138.899 142.548,156.828 149.111 C 201.610 165.501,199.630 165.582,255.507 145.079 C 279.251 136.366,313.457 123.874,331.520 117.319 C 375.921 101.205,380.533 97.831,376.004 84.775 C 373.443 77.393,371.917 76.745,274.009 41.405 C 198.926 14.305,202.267 14.794,170.044 26.187 M246.971 75.330 C 268.108 82.841,285.415 89.397,285.432 89.899 C 285.449 90.400,276.145 94.100,264.758 98.119 C 253.370 102.139,236.123 108.254,226.432 111.707 C 201.381 120.632,199.344 120.426,154.626 104.445 C 133.547 96.912,116.304 90.352,116.308 89.868 C 116.330 87.323,191.890 61.964,199.865 61.825 C 206.463 61.710,217.746 64.945,246.971 75.330 M42.079 148.236 C 17.090 155.230,18.203 173.630,44.230 183.783 C 115.215 211.475,190.119 236.815,200.881 236.777 C 211.874 236.739,255.105 222.192,352.423 185.784 C 380.250 175.373,385.596 161.203,365.387 151.420 C 350.680 144.301,339.595 146.455,281.057 167.807 C 196.189 198.763,202.895 197.685,169.669 185.715 C 157.276 181.251,128.899 170.996,106.608 162.927 C 64.915 147.834,53.117 145.148,42.079 148.236 M37.885 223.578 C 25.960 229.055,21.957 235.791,25.550 244.337 C 28.395 251.104,34.309 254.002,74.964 268.556 C 92.368 274.786,125.639 286.751,148.899 295.144 C 182.793 307.376,193.114 310.403,200.881 310.392 C 209.800 310.379,262.740 292.403,357.709 257.138 C 380.687 248.606,383.739 232.563,364.084 223.637 C 349.498 217.013,344.302 218.060,285.977 239.364 C 192.243 273.602,205.668 272.211,153.304 253.115 C 55.506 217.450,52.761 216.747,37.885 223.578 " stroke="none" fill="#000000" fill-rule="evenodd"></path></g></svg>