<svg id="svg" version="1.1" xmlns="http://www.w3.org/2000/svg" xmlns:xlink="http://www.w3.org/1999/xlink" width="400" height="250.14084507042253" viewBox="0, 0, 400,250.14084507042253"><g id="svgg"><path id="path0" d="M111.543 120.446 C 109.533 121.169,107.698 121.868,107.465 121.999 C 107.138 122.181,108.055 122.599,111.444 123.813 C 116.644 125.675,116.787 125.679,121.076 124.092 C 122.658 123.506,124.436 122.852,125.027 122.638 C 126.406 122.140,126.427 122.153,121.694 120.487 C 116.648 118.710,116.370 118.708,111.543 120.446 M152.595 132.458 C 152.595 138.489,152.650 143.369,152.716 143.303 C 152.883 143.136,152.897 121.795,152.731 121.628 C 152.656 121.553,152.595 126.427,152.595 132.458 M235.647 125.544 L 235.647 129.081 236.944 129.081 C 242.512 129.081,242.844 122.745,237.306 122.177 L 235.647 122.007 235.647 125.544 M201.376 125.453 C 201.547 125.660,201.800 125.829,201.937 125.829 C 202.077 125.829,202.050 125.663,201.876 125.453 C 201.705 125.247,201.452 125.078,201.315 125.078 C 201.175 125.078,201.202 125.244,201.376 125.453 M214.622 126.154 C 211.976 126.903,210.206 128.814,209.534 131.645 L 209.371 132.333 216.756 132.333 C 225.143 132.333,224.620 132.498,223.545 130.190 C 221.966 126.798,218.261 125.123,214.622 126.154 M194.809 126.255 C 195.119 126.315,195.625 126.315,195.935 126.255 C 196.245 126.196,195.991 126.147,195.372 126.147 C 194.753 126.147,194.500 126.196,194.809 126.255 M255.587 128.233 C 250.921 129.667,250.544 137.082,255.032 139.121 C 257.942 140.442,261.311 139.100,262.402 136.186 C 264.276 131.177,260.467 126.733,255.587 128.233 M285.275 129.464 C 285.047 129.812,284.932 130.168,285.019 130.256 C 285.107 130.343,285.178 130.284,285.178 130.123 C 285.178 129.962,285.403 129.606,285.679 129.331 C 285.954 129.056,286.069 128.831,285.934 128.831 C 285.800 128.831,285.503 129.115,285.275 129.464 M116.135 130.754 C 116.376 130.817,116.770 130.817,117.011 130.754 C 117.251 130.691,117.054 130.640,116.573 130.640 C 116.091 130.640,115.894 130.691,116.135 130.754 M291.952 133.446 C 291.938 134.171,292.006 134.360,292.211 134.156 C 292.408 133.958,292.414 133.671,292.231 133.168 C 291.975 132.466,291.972 132.469,291.952 133.446 M267.917 133.709 C 267.917 134.053,268.030 134.334,268.168 134.334 C 268.305 134.334,268.418 134.053,268.418 133.709 C 268.418 133.365,268.305 133.083,268.168 133.083 C 268.030 133.083,267.917 133.365,267.917 133.709 M284.177 138.962 C 284.109 141.714,284.081 144.012,284.115 144.069 C 284.369 144.492,284.430 143.271,284.370 138.936 L 284.302 133.959 284.177 138.962 M209.410 135.397 C 209.431 135.816,209.468 135.849,209.553 135.525 C 209.658 135.125,210.354 135.085,218.467 135.022 L 227.267 134.953 218.324 134.894 L 209.381 134.834 209.410 135.397 M223.457 137.283 C 223.288 137.393,223.892 137.437,224.799 137.379 C 226.010 137.302,226.513 137.365,226.689 137.618 C 226.886 137.899,226.912 137.894,226.828 137.586 C 226.715 137.167,224.006 136.923,223.457 137.283 M116.010 139.514 C 116.320 139.573,116.826 139.573,117.136 139.514 C 117.445 139.454,117.192 139.405,116.573 139.405 C 115.954 139.405,115.700 139.454,116.010 139.514 M136.450 140.605 C 136.359 140.751,136.345 140.931,136.419 141.005 C 136.598 141.184,137.086 140.868,137.086 140.573 C 137.086 140.253,136.654 140.275,136.450 140.605 M208.638 140.732 C 208.630 141.023,209.523 141.900,210.131 142.198 C 210.338 142.300,210.257 142.176,209.951 141.923 C 209.646 141.670,209.227 141.238,209.021 140.963 C 208.815 140.688,208.643 140.584,208.638 140.732 M264.749 141.521 C 264.314 141.971,264.040 142.339,264.140 142.339 C 264.372 142.339,265.790 140.867,265.648 140.774 C 265.589 140.735,265.185 141.072,264.749 141.521 M224.046 141.646 C 223.650 142.027,223.434 142.339,223.565 142.339 C 223.833 142.339,225.034 141.128,224.871 141.022 C 224.813 140.984,224.442 141.265,224.046 141.646 " stroke="none" fill="#eaeaea" fill-rule="evenodd"></path><path id="path1" d="M112.570 115.204 C 110.851 115.806,108.036 116.818,106.316 117.453 C 104.597 118.089,101.912 119.047,100.350 119.582 C 96.738 120.821,96.024 121.425,96.622 122.737 C 96.961 123.482,97.674 123.806,103.440 125.835 C 104.953 126.368,107.767 127.382,109.694 128.088 C 116.625 130.632,116.872 130.667,119.699 129.528 C 121.784 128.688,127.550 126.585,130.206 125.695 C 138.277 122.993,138.922 121.699,133.191 119.711 C 131.824 119.237,129.131 118.274,127.205 117.570 C 116.220 113.559,116.940 113.675,112.570 115.204 M150.094 130.582 L 150.094 143.590 151.220 143.590 L 152.345 143.590 152.345 132.033 C 152.345 119.379,152.323 119.523,153.728 123.125 C 154.174 124.268,155.010 126.385,155.587 127.830 C 156.582 130.319,157.467 132.556,159.844 138.587 C 161.864 143.711,161.787 143.590,163.021 143.590 C 163.617 143.590,164.103 143.471,164.103 143.324 C 164.103 143.178,164.375 142.474,164.708 141.761 C 165.041 141.047,165.724 139.393,166.227 138.086 C 167.570 134.594,169.127 130.635,170.605 126.954 C 171.323 125.166,172.151 123.056,172.446 122.267 C 173.555 119.290,173.609 119.740,173.609 132.090 L 173.609 143.590 174.609 143.590 L 175.610 143.590 175.610 130.582 L 175.610 117.573 173.851 117.573 C 172.399 117.573,172.066 117.650,171.944 118.011 C 171.585 119.073,168.526 126.835,167.976 128.080 C 167.642 128.837,166.962 130.525,166.466 131.832 C 165.969 133.139,165.120 135.374,164.580 136.797 C 162.932 141.135,162.981 141.133,161.358 136.961 C 160.229 134.060,159.233 131.543,157.101 126.204 C 156.387 124.415,155.401 121.882,154.910 120.575 C 153.745 117.476,153.846 117.573,151.814 117.573 L 150.094 117.573 150.094 130.582 M180.363 119.450 L 180.363 121.326 181.363 121.326 L 182.364 121.326 182.364 119.450 L 182.364 117.573 181.363 117.573 L 180.363 117.573 180.363 119.450 M230.644 130.556 L 230.644 143.590 233.208 143.570 C 234.619 143.559,235.660 143.503,235.522 143.445 C 235.361 143.378,235.317 141.576,235.397 138.399 L 235.522 133.458 238.030 133.321 C 243.730 133.008,246.686 129.952,246.350 124.720 C 246.011 119.434,243.532 117.760,235.835 117.618 L 230.644 117.523 230.644 130.556 M270.919 119.575 L 270.919 121.576 273.046 121.576 L 275.172 121.576 275.172 119.575 L 275.172 117.573 273.046 117.573 L 270.919 117.573 270.919 119.575 M302.884 120.763 L 302.814 123.952 301.251 124.027 L 299.687 124.101 299.687 125.954 L 299.687 127.806 301.251 127.880 L 302.814 127.955 302.880 135.772 L 302.946 143.590 304.941 143.590 L 306.935 143.590 307.001 135.772 L 307.067 127.955 308.630 127.880 L 310.194 127.806 310.194 125.954 L 310.194 124.101 308.630 124.027 L 307.067 123.952 306.997 120.763 L 306.927 117.573 304.941 117.573 L 302.954 117.573 302.884 120.763 M119.825 119.506 C 120.719 119.843,122.610 120.514,124.027 120.998 C 127.489 122.180,127.560 122.105,120.759 124.469 C 116.366 125.995,116.038 125.952,107.567 122.708 C 106.087 122.141,106.188 122.078,111.779 120.074 C 116.365 118.430,116.869 118.395,119.825 119.506 M239.269 122.215 C 243.208 124.085,241.793 128.986,237.229 129.279 L 235.397 129.397 235.397 125.611 L 235.397 121.826 236.923 121.826 C 237.785 121.826,238.805 121.995,239.269 122.215 M213.890 123.978 C 204.419 126.523,204.489 141.147,213.984 143.718 C 218.775 145.014,223.439 143.094,225.719 138.885 L 226.423 137.586 225.159 137.586 C 223.964 137.586,223.863 137.638,223.283 138.557 C 219.559 144.456,209.769 142.321,209.081 135.460 L 209.006 134.709 217.985 134.643 L 226.964 134.578 226.825 132.767 C 226.315 126.128,220.527 122.195,213.890 123.978 M254.230 123.927 C 251.104 124.944,248.024 128.142,247.520 130.894 C 247.426 131.410,247.275 131.832,247.185 131.832 C 246.924 131.832,247.299 136.132,247.655 137.222 C 250.396 145.602,262.929 146.468,266.547 138.526 C 270.383 130.107,262.813 121.134,254.230 123.927 M192.869 124.061 C 191.858 124.369,190.779 124.988,190.267 125.553 C 189.515 126.384,189.118 126.220,189.118 125.078 L 189.118 124.078 188.118 124.078 L 187.117 124.078 187.117 133.834 L 187.117 143.590 188.096 143.590 L 189.076 143.590 189.175 136.898 C 189.314 127.555,190.323 125.817,195.597 125.834 C 200.336 125.850,201.126 127.464,201.126 137.131 L 201.126 143.590 202.265 143.590 L 203.405 143.590 203.324 136.273 C 203.233 128.022,203.147 127.600,201.140 125.593 C 199.594 124.047,195.443 123.278,192.869 124.061 M286.506 124.314 C 285.930 124.576,285.206 125.080,284.898 125.435 C 284.128 126.319,283.927 126.246,283.927 125.078 L 283.927 124.078 281.801 124.078 L 279.675 124.078 279.675 133.834 L 279.675 143.590 281.782 143.590 L 283.889 143.590 283.971 137.398 C 284.079 129.203,284.525 128.160,288.033 127.906 C 291.864 127.628,292.669 129.598,292.678 139.275 L 292.683 143.590 294.820 143.590 L 296.957 143.590 296.924 136.671 C 296.905 132.865,296.798 129.573,296.685 129.354 C 296.572 129.135,296.293 128.424,296.064 127.774 C 294.922 124.526,289.980 122.737,286.506 124.314 M180.363 133.834 L 180.363 143.590 181.363 143.590 L 182.364 143.590 182.364 133.834 L 182.364 124.078 181.363 124.078 L 180.363 124.078 180.363 133.834 M270.919 133.834 L 270.919 143.590 273.046 143.590 L 275.172 143.590 275.172 133.834 L 275.172 124.078 273.046 124.078 L 270.919 124.078 270.919 133.834 M220.331 126.300 C 222.231 127.269,224.246 129.978,224.447 131.832 L 224.515 132.458 216.823 132.524 L 209.131 132.590 209.131 132.024 C 209.132 127.559,215.960 124.070,220.331 126.300 M259.335 127.955 C 261.898 128.716,263.331 131.142,263.105 134.336 C 262.549 142.193,251.546 141.592,251.546 133.705 C 251.546 129.404,255.181 126.722,259.335 127.955 M97.677 129.319 C 96.566 129.769,96.092 131.257,96.842 131.941 C 97.215 132.281,100.067 133.433,103.367 134.578 C 104.508 134.973,107.186 135.939,109.318 136.723 C 115.025 138.823,115.834 139.087,116.549 139.086 C 117.330 139.084,118.920 138.667,119.950 138.194 C 120.363 138.005,121.995 137.392,123.577 136.834 C 125.159 136.275,127.692 135.380,129.206 134.846 C 136.998 132.095,137.694 131.608,136.240 129.918 C 135.464 129.014,132.788 128.771,131.197 129.458 C 129.999 129.975,125.131 131.730,120.715 133.237 C 116.627 134.632,116.372 134.632,112.445 133.245 C 106.398 131.110,104.195 130.312,102.647 129.695 C 101.065 129.066,98.737 128.889,97.677 129.319 M97.566 137.907 C 95.595 138.904,96.342 140.680,99.062 141.463 C 99.406 141.562,100.363 141.905,101.188 142.225 C 113.349 146.941,117.450 148.093,118.663 147.133 C 118.821 147.008,120.244 146.480,121.826 145.960 C 123.408 145.439,124.816 144.928,124.953 144.825 C 125.091 144.722,126.385 144.236,127.830 143.744 C 136.733 140.714,137.317 140.382,136.680 138.723 C 136.233 137.556,133.175 137.219,130.808 138.075 C 130.065 138.344,127.880 139.142,125.954 139.849 C 115.586 143.653,117.670 143.782,103.388 138.446 C 100.903 137.518,98.732 137.317,97.566 137.907 " stroke="none" fill="#040404" fill-rule="evenodd"></path><path id="path2" d="M151.701 117.260 C 153.203 117.325,153.761 117.449,154.007 117.772 C 154.301 118.160,154.331 118.161,154.339 117.788 C 154.350 117.199,153.809 117.066,151.637 117.124 L 149.719 117.174 151.701 117.260 M171.920 117.234 C 171.748 117.306,171.611 117.553,171.615 117.782 C 171.622 118.158,171.647 118.156,171.877 117.761 C 172.084 117.406,172.485 117.323,173.994 117.323 L 175.856 117.323 175.924 130.519 L 175.992 143.715 175.988 130.457 L 175.985 117.198 174.109 117.151 C 173.077 117.124,172.092 117.162,171.920 117.234 M180.199 117.265 C 180.039 117.366,180.563 117.448,181.362 117.448 C 182.161 117.448,182.763 117.364,182.700 117.261 C 182.552 117.020,180.579 117.023,180.199 117.265 M230.229 117.265 C 230.069 117.366,231.477 117.418,233.356 117.381 C 238.790 117.274,239.377 117.167,234.772 117.122 C 232.433 117.099,230.389 117.164,230.229 117.265 M270.832 117.261 C 270.768 117.364,271.747 117.448,273.006 117.448 L 275.297 117.448 275.297 119.575 L 275.297 121.701 272.921 121.841 L 270.544 121.981 272.808 122.028 C 275.603 122.088,275.672 122.029,275.672 119.575 C 275.672 118.430,275.553 117.554,275.372 117.373 C 275.042 117.043,271.029 116.944,270.832 117.261 M303.627 117.258 C 304.350 117.308,305.532 117.308,306.254 117.258 C 306.976 117.207,306.385 117.166,304.941 117.166 C 303.496 117.166,302.905 117.207,303.627 117.258 M116.263 119.001 C 116.574 119.061,117.025 119.059,117.264 118.996 C 117.503 118.934,117.248 118.885,116.698 118.887 C 116.148 118.890,115.952 118.941,116.263 119.001 M152.345 132.458 C 152.345 138.764,152.404 143.865,152.476 143.793 C 152.547 143.721,152.606 138.620,152.606 132.458 C 152.606 126.295,152.547 121.194,152.476 121.123 C 152.404 121.051,152.345 126.152,152.345 132.458 M180.199 121.635 C 180.579 121.876,182.552 121.879,182.700 121.639 C 182.763 121.535,182.161 121.451,181.362 121.451 C 180.563 121.451,180.039 121.534,180.199 121.635 M235.497 125.578 C 235.497 127.573,235.535 128.390,235.583 127.392 C 235.630 126.395,235.630 124.762,235.583 123.765 C 235.535 122.767,235.497 123.583,235.497 125.578 M172.367 123.060 C 172.050 123.653,172.035 123.902,172.328 123.721 C 172.548 123.585,172.892 122.577,172.718 122.577 C 172.667 122.577,172.509 122.794,172.367 123.060 M216.576 123.254 C 216.887 123.314,217.337 123.311,217.576 123.249 C 217.816 123.186,217.561 123.137,217.011 123.140 C 216.460 123.143,216.265 123.194,216.576 123.254 M180.026 123.765 C 179.962 123.868,180.434 123.919,181.075 123.878 C 182.901 123.760,183.123 123.638,181.566 123.606 C 180.783 123.590,180.090 123.662,180.026 123.765 M186.787 123.753 C 186.719 123.863,187.265 123.914,188.000 123.868 L 189.337 123.783 189.437 124.743 L 189.536 125.704 189.515 124.703 L 189.493 123.702 188.202 123.627 C 187.492 123.586,186.856 123.643,186.787 123.753 M272.921 123.813 L 275.297 123.952 275.297 133.998 C 275.297 139.523,275.380 143.913,275.481 143.754 C 275.814 143.230,275.710 124.215,275.372 123.877 C 275.175 123.680,274.294 123.594,272.808 123.625 L 270.544 123.673 272.921 123.813 M281.725 123.760 L 283.900 123.846 283.984 124.900 C 284.065 125.924,284.074 125.933,284.285 125.227 C 284.668 123.941,284.281 123.704,281.775 123.688 L 279.550 123.674 281.725 123.760 M300.125 123.758 C 300.572 123.814,301.304 123.814,301.751 123.758 C 302.198 123.703,301.832 123.657,300.938 123.657 C 300.044 123.657,299.678 123.703,300.125 123.758 M308.130 123.758 C 308.577 123.814,309.309 123.814,309.756 123.758 C 310.203 123.703,309.837 123.657,308.943 123.657 C 308.049 123.657,307.683 123.703,308.130 123.758 M191.307 124.098 C 191.066 124.238,190.871 124.488,190.873 124.653 C 190.876 124.860,190.934 124.869,191.061 124.682 C 191.162 124.532,191.470 124.282,191.745 124.126 C 192.020 123.970,192.133 123.843,191.995 123.843 C 191.857 123.843,191.548 123.957,191.307 124.098 M252.220 124.200 C 251.773 124.395,251.407 124.689,251.407 124.855 C 251.407 125.048,251.571 125.008,251.865 124.742 C 252.116 124.514,252.447 124.328,252.600 124.328 C 252.753 124.328,252.948 124.215,253.033 124.078 C 253.225 123.767,253.213 123.769,252.220 124.200 M211.275 124.458 C 211.010 124.659,210.841 124.871,210.900 124.929 C 210.959 124.987,211.273 124.820,211.597 124.556 C 212.282 124.002,211.994 123.914,211.275 124.458 M264.290 125.684 C 264.565 125.909,265.001 126.344,265.259 126.649 L 265.727 127.205 265.366 126.597 C 265.167 126.264,264.731 125.829,264.397 125.632 C 263.818 125.290,263.813 125.292,264.290 125.684 M266.491 128.425 C 266.794 128.890,267.081 129.236,267.129 129.193 C 267.263 129.073,266.333 127.580,266.124 127.580 C 266.022 127.580,266.187 127.960,266.491 128.425 M299.663 128.157 C 299.775 128.268,300.473 128.323,301.215 128.278 L 302.564 128.198 301.012 128.077 C 300.159 128.010,299.552 128.046,299.663 128.157 M308.818 128.080 L 307.317 128.246 308.881 128.288 C 309.784 128.312,310.444 128.225,310.444 128.080 C 310.444 127.942,310.416 127.849,310.381 127.872 C 310.347 127.895,309.644 127.989,308.818 128.080 M225.891 128.518 C 225.891 128.637,226.054 128.953,226.254 129.220 C 226.604 129.689,226.612 129.686,226.474 129.139 C 226.332 128.575,225.891 128.105,225.891 128.518 M130.894 129.088 C 130.585 129.213,130.331 129.375,130.331 129.448 C 130.331 129.691,130.730 129.586,131.222 129.214 C 131.775 128.795,131.698 128.766,130.894 129.088 M203.377 130.427 C 203.377 130.633,203.490 130.872,203.627 130.957 C 203.765 131.042,203.877 130.943,203.877 130.736 C 203.877 130.530,203.765 130.291,203.627 130.206 C 203.490 130.121,203.377 130.221,203.377 130.427 M296.936 130.707 C 296.936 130.913,297.048 131.082,297.186 131.082 C 297.323 131.082,297.436 130.913,297.436 130.707 C 297.436 130.500,297.323 130.331,297.186 130.331 C 297.048 130.331,296.936 130.500,296.936 130.707 M200.625 137.836 C 200.625 141.672,200.716 143.840,200.876 143.840 C 201.035 143.840,201.126 141.672,201.126 137.836 C 201.126 134.000,201.035 131.832,200.876 131.832 C 200.716 131.832,200.625 134.000,200.625 137.836 M291.950 132.255 C 292.006 132.905,292.398 133.456,292.415 132.910 C 292.425 132.609,292.320 132.293,292.183 132.208 C 292.045 132.123,291.940 132.144,291.950 132.255 M189.368 138.137 C 189.299 141.398,189.330 143.979,189.436 143.873 C 189.542 143.767,189.598 141.099,189.560 137.944 L 189.493 132.208 189.368 138.137 M246.729 133.834 C 246.729 134.590,246.776 134.900,246.833 134.522 C 246.891 134.143,246.891 133.524,246.833 133.146 C 246.776 132.767,246.729 133.077,246.729 133.834 M284.094 133.000 C 284.003 133.092,283.949 135.540,283.974 138.441 L 284.021 143.715 284.170 138.336 C 284.332 132.501,284.335 132.759,284.094 133.000 M213.946 134.771 C 216.388 134.812,220.385 134.812,222.827 134.771 C 225.269 134.730,223.271 134.697,218.386 134.697 C 213.502 134.697,211.504 134.730,213.946 134.771 M209.881 137.586 C 209.881 137.724,210.000 137.836,210.146 137.836 C 210.292 137.836,210.341 137.949,210.256 138.086 C 210.171 138.224,210.221 138.336,210.367 138.336 C 210.674 138.336,210.686 138.269,210.480 137.732 C 210.312 137.295,209.881 137.190,209.881 137.586 M223.270 137.741 C 223.048 137.964,222.928 138.209,223.005 138.285 C 223.082 138.362,223.284 138.240,223.455 138.015 C 223.665 137.736,224.246 137.577,225.266 137.518 L 226.767 137.430 225.221 137.383 C 224.083 137.348,223.569 137.443,223.270 137.741 M252.658 137.414 C 252.658 137.457,253.024 137.823,253.471 138.227 L 254.284 138.962 253.549 138.149 C 252.864 137.391,252.658 137.221,252.658 137.414 M96.560 137.961 C 96.384 138.174,96.295 138.405,96.364 138.474 C 96.433 138.542,96.634 138.424,96.811 138.211 C 96.987 137.998,97.076 137.768,97.007 137.699 C 96.938 137.630,96.737 137.748,96.560 137.961 M136.085 137.727 C 136.085 137.914,136.756 138.587,136.943 138.587 C 137.261 138.587,137.055 138.187,136.585 137.894 C 136.310 137.722,136.085 137.647,136.085 137.727 M225.817 139.237 C 225.570 139.567,225.458 139.837,225.569 139.837 C 225.787 139.837,226.478 138.837,226.346 138.712 C 226.302 138.670,226.064 138.906,225.817 139.237 M221.813 139.671 C 221.428 140.069,221.154 140.437,221.206 140.489 C 221.258 140.540,221.621 140.247,222.014 139.837 C 222.406 139.428,222.680 139.059,222.621 139.019 C 222.562 138.979,222.199 139.272,221.813 139.671 M266.342 139.487 C 266.095 139.817,265.984 140.088,266.095 140.088 C 266.313 140.088,267.003 139.087,266.872 138.962 C 266.828 138.920,266.589 139.156,266.342 139.487 M211.606 139.894 C 211.936 140.267,212.324 140.499,212.469 140.409 C 212.636 140.306,212.599 140.205,212.370 140.134 C 212.171 140.073,211.782 139.841,211.507 139.619 C 211.159 139.339,211.190 139.422,211.606 139.894 M216.448 141.761 C 216.689 141.824,217.083 141.824,217.323 141.761 C 217.564 141.698,217.367 141.647,216.886 141.647 C 216.404 141.647,216.207 141.698,216.448 141.761 M251.907 143.215 C 252.269 143.650,252.658 143.707,252.658 143.325 C 252.658 143.179,252.545 143.129,252.408 143.215 C 252.270 143.300,252.158 143.250,252.158 143.104 C 252.158 142.958,252.031 142.839,251.877 142.839 C 251.683 142.839,251.692 142.955,251.907 143.215 M262.163 143.226 C 261.801 143.427,261.696 143.574,261.914 143.577 C 262.361 143.583,263.075 143.167,262.907 142.998 C 262.842 142.933,262.507 143.036,262.163 143.226 M256.851 144.517 C 257.162 144.577,257.612 144.575,257.852 144.512 C 258.091 144.449,257.836 144.401,257.286 144.403 C 256.735 144.406,256.540 144.457,256.851 144.517 M116.161 147.877 C 116.484 148.065,116.786 148.068,117.161 147.886 C 117.630 147.659,117.571 147.625,116.698 147.617 C 115.865 147.609,115.775 147.653,116.161 147.877 " stroke="none" fill="#848484" fill-rule="evenodd"></path><path id="path3" d="M151.039 117.507 C 151.627 117.560,152.527 117.559,153.040 117.505 C 153.552 117.451,153.071 117.408,151.970 117.409 C 150.869 117.410,150.450 117.454,151.039 117.507 M172.921 117.506 C 173.437 117.560,174.281 117.560,174.797 117.506 C 175.313 117.452,174.891 117.407,173.859 117.407 C 172.827 117.407,172.405 117.452,172.921 117.506 M232.333 117.509 C 233.468 117.556,235.325 117.556,236.460 117.509 C 237.595 117.463,236.667 117.425,234.396 117.425 C 232.126 117.425,231.198 117.463,232.333 117.509 M303.760 117.508 C 304.418 117.559,305.431 117.559,306.011 117.506 C 306.592 117.454,306.054 117.411,304.816 117.412 C 303.577 117.413,303.102 117.456,303.760 117.508 M180.195 119.450 C 180.196 120.413,180.241 120.776,180.295 120.257 C 180.349 119.738,180.348 118.950,180.293 118.506 C 180.238 118.062,180.194 118.487,180.195 119.450 M182.696 119.450 C 182.697 120.413,182.743 120.776,182.797 120.257 C 182.851 119.738,182.850 118.950,182.795 118.506 C 182.739 118.062,182.695 118.487,182.696 119.450 M180.801 121.502 C 181.110 121.562,181.617 121.562,181.926 121.502 C 182.236 121.443,181.982 121.394,181.363 121.394 C 180.744 121.394,180.491 121.443,180.801 121.502 M235.960 121.999 C 236.201 122.062,236.595 122.062,236.836 121.999 C 237.076 121.936,236.879 121.884,236.398 121.884 C 235.916 121.884,235.719 121.936,235.960 121.999 M173.473 132.458 C 173.473 138.099,173.505 140.442,173.546 137.665 C 173.586 134.888,173.586 130.273,173.546 127.409 C 173.506 124.545,173.473 126.817,173.473 132.458 M299.542 124.165 C 299.471 124.351,299.448 125.279,299.490 126.229 L 299.568 127.955 299.690 125.891 C 299.812 123.829,299.786 123.528,299.542 124.165 M180.112 133.408 L 180.237 142.714 180.303 133.599 C 180.339 128.586,180.283 124.398,180.178 124.293 C 180.073 124.188,180.044 128.290,180.112 133.408 M182.728 133.834 C 182.728 139.131,182.761 141.298,182.801 138.649 C 182.842 136.001,182.842 131.667,182.801 129.018 C 182.761 126.370,182.728 128.537,182.728 133.834 M186.730 133.834 C 186.730 138.993,186.763 141.104,186.804 138.524 C 186.845 135.944,186.845 131.723,186.804 129.143 C 186.763 126.563,186.730 128.674,186.730 133.834 M287.701 127.920 C 287.758 127.969,288.255 128.078,288.806 128.163 C 289.487 128.267,289.686 128.240,289.431 128.077 C 289.089 127.859,287.458 127.711,287.701 127.920 M300.500 128.009 C 300.879 128.066,301.498 128.066,301.876 128.009 C 302.255 127.952,301.945 127.905,301.188 127.905 C 300.432 127.905,300.122 127.952,300.500 128.009 M307.353 128.022 C 307.288 128.128,307.703 128.178,308.276 128.134 C 309.960 128.004,310.164 127.890,308.770 127.859 C 308.056 127.843,307.418 127.916,307.353 128.022 M203.377 131.693 C 203.377 131.891,203.490 132.123,203.627 132.208 C 203.765 132.293,203.877 132.130,203.877 131.847 C 203.877 131.564,203.765 131.332,203.627 131.332 C 203.490 131.332,203.377 131.494,203.377 131.693 M96.686 132.084 C 96.854 132.355,98.311 133.167,98.311 132.989 C 98.311 132.930,97.911 132.646,97.421 132.357 C 96.931 132.068,96.600 131.945,96.686 132.084 M213.196 132.520 C 215.225 132.562,218.546 132.562,220.575 132.520 C 222.605 132.478,220.944 132.443,216.886 132.443 C 212.827 132.443,211.166 132.478,213.196 132.520 M246.979 133.834 C 246.979 134.590,247.026 134.900,247.083 134.522 C 247.141 134.143,247.141 133.524,247.083 133.146 C 247.026 132.767,246.979 133.077,246.979 133.834 M249.625 141.138 C 249.737 141.440,249.970 141.735,250.143 141.792 C 250.344 141.859,250.303 141.663,250.027 141.242 C 249.504 140.443,249.354 140.404,249.625 141.138 M216.448 142.011 C 216.689 142.074,217.083 142.074,217.323 142.011 C 217.564 141.948,217.367 141.897,216.886 141.897 C 216.404 141.897,216.207 141.948,216.448 142.011 M162.977 143.840 L 161.976 144.019 162.900 144.055 C 163.407 144.074,163.892 143.977,163.977 143.840 C 164.063 143.702,164.097 143.606,164.055 143.625 C 164.012 143.645,163.527 143.741,162.977 143.840 M174.609 143.840 L 173.483 144.015 174.532 144.052 C 175.108 144.073,175.650 143.977,175.735 143.840 C 175.820 143.702,175.855 143.607,175.812 143.627 C 175.770 143.648,175.228 143.744,174.609 143.840 M181.363 143.840 L 180.238 144.015 181.286 144.052 C 181.863 144.073,182.404 143.977,182.489 143.840 C 182.574 143.702,182.609 143.607,182.566 143.627 C 182.524 143.648,181.982 143.744,181.363 143.840 M188.118 143.840 L 186.992 144.015 188.040 144.052 C 188.617 144.073,189.158 143.977,189.243 143.840 C 189.328 143.702,189.363 143.607,189.321 143.627 C 189.278 143.648,188.737 143.744,188.118 143.840 M202.376 143.840 L 201.251 144.015 202.251 144.049 C 202.802 144.067,203.421 143.973,203.627 143.840 C 203.834 143.707,203.890 143.613,203.752 143.631 C 203.615 143.650,202.996 143.744,202.376 143.840 M230.616 143.913 C 230.725 144.022,231.818 144.077,233.043 144.036 L 235.272 143.961 232.844 143.838 C 231.509 143.770,230.506 143.804,230.616 143.913 M292.507 143.891 C 292.673 143.996,293.709 144.069,294.809 144.052 C 297.054 144.018,296.715 143.904,294.008 143.781 C 293.017 143.736,292.342 143.786,292.507 143.891 M302.775 143.899 C 303.156 144.141,306.879 144.144,307.028 143.902 C 307.091 143.799,306.095 143.715,304.814 143.715 C 303.533 143.715,302.616 143.798,302.775 143.899 M150.782 144.016 C 151.091 144.076,151.598 144.076,151.907 144.016 C 152.217 143.957,151.964 143.908,151.345 143.908 C 150.725 143.908,150.472 143.957,150.782 144.016 M271.982 144.022 C 272.498 144.076,273.343 144.076,273.859 144.022 C 274.375 143.968,273.952 143.924,272.921 143.924 C 271.889 143.924,271.467 143.968,271.982 144.022 M280.870 144.023 C 281.458 144.076,282.359 144.075,282.871 144.022 C 283.383 143.968,282.902 143.925,281.801 143.926 C 280.700 143.927,280.281 143.971,280.870 144.023 " stroke="none" fill="#595959" fill-rule="evenodd"></path><path id="path4" d="M275.259 119.575 C 275.259 120.744,275.302 121.223,275.355 120.638 C 275.408 120.053,275.408 119.096,275.355 118.512 C 275.302 117.927,275.259 118.405,275.259 119.575 M230.260 130.582 C 230.260 137.667,230.292 140.566,230.331 137.023 C 230.370 133.480,230.370 127.683,230.331 124.140 C 230.292 120.597,230.260 123.496,230.260 130.582 M275.286 133.709 C 275.286 139.074,275.319 141.234,275.359 138.508 C 275.400 135.781,275.400 131.391,275.359 128.751 C 275.319 126.112,275.286 128.343,275.286 133.709 M235.960 129.253 C 236.201 129.316,236.595 129.316,236.836 129.253 C 237.076 129.190,236.879 129.139,236.398 129.139 C 235.916 129.139,235.719 129.190,235.960 129.253 M236.210 133.763 C 236.588 133.820,237.208 133.820,237.586 133.763 C 237.964 133.705,237.655 133.658,236.898 133.658 C 236.141 133.658,235.832 133.705,236.210 133.763 " stroke="none" fill="#7c7c7c" fill-rule="evenodd"></path><path id="path5" d="M149.960 130.457 C 149.960 137.611,149.992 140.502,150.031 136.881 C 150.070 133.259,150.070 127.406,150.031 123.872 C 149.992 120.339,149.960 123.302,149.960 130.457 M307.287 120.700 C 307.288 122.351,307.328 122.994,307.377 122.129 C 307.426 121.264,307.426 119.913,307.377 119.127 C 307.327 118.341,307.287 119.049,307.287 120.700 M272.108 121.759 C 272.692 121.812,273.649 121.812,274.234 121.759 C 274.819 121.706,274.340 121.663,273.171 121.663 C 272.001 121.663,271.523 121.706,272.108 121.759 M301.188 123.827 L 299.812 123.996 301.111 124.037 C 301.825 124.059,302.479 123.965,302.564 123.827 C 302.649 123.690,302.684 123.596,302.641 123.618 C 302.599 123.640,301.945 123.735,301.188 123.827 M180.270 124.025 C 180.203 124.134,180.562 124.182,181.068 124.132 C 182.453 123.995,182.617 123.869,181.441 123.847 C 180.864 123.836,180.337 123.916,180.270 124.025 M186.981 124.141 C 186.915 124.313,186.890 128.788,186.926 134.084 L 186.992 143.715 188.057 143.739 L 189.122 143.764 188.119 143.662 L 187.117 143.561 187.117 133.834 L 187.117 124.106 188.180 124.011 L 189.243 123.915 188.172 123.871 C 187.510 123.844,187.055 123.947,186.981 124.141 M272.108 124.011 C 272.692 124.063,273.649 124.063,274.234 124.011 C 274.819 123.958,274.340 123.915,273.171 123.915 C 272.001 123.915,271.523 123.958,272.108 124.011 M280.863 124.011 C 281.448 124.063,282.405 124.063,282.989 124.011 C 283.574 123.958,283.096 123.915,281.926 123.915 C 280.757 123.915,280.278 123.958,280.863 124.011 M308.005 124.007 C 308.383 124.064,309.003 124.064,309.381 124.007 C 309.759 123.949,309.450 123.902,308.693 123.902 C 307.936 123.902,307.627 123.949,308.005 124.007 M310.280 125.954 C 310.281 127.054,310.325 127.474,310.377 126.885 C 310.430 126.297,310.429 125.396,310.376 124.884 C 310.322 124.372,310.279 124.853,310.280 125.954 M246.482 125.511 C 246.463 126.322,246.491 126.372,246.682 125.869 C 246.805 125.547,246.814 125.123,246.704 124.926 C 246.574 124.693,246.496 124.898,246.482 125.511 M307.303 135.835 C 307.303 140.031,307.337 141.748,307.379 139.650 C 307.421 137.552,307.421 134.118,307.379 132.020 C 307.337 129.922,307.303 131.639,307.303 135.835 M203.502 137.735 C 203.502 140.817,203.587 143.339,203.690 143.339 C 203.793 143.340,203.877 140.870,203.877 137.851 C 203.877 134.832,203.793 132.310,203.690 132.246 C 203.587 132.182,203.502 134.652,203.502 137.735 M296.946 137.899 L 296.974 143.465 294.766 143.605 L 292.558 143.745 294.697 143.793 C 296.085 143.823,296.941 143.735,297.136 143.540 C 297.528 143.147,297.568 132.333,297.177 132.333 C 297.006 132.333,296.928 134.213,296.946 137.899 M161.830 143.668 C 161.943 143.782,162.472 143.836,163.006 143.789 L 163.977 143.704 162.801 143.584 C 162.154 143.517,161.717 143.555,161.830 143.668 M173.587 143.668 C 173.700 143.782,174.230 143.836,174.764 143.789 L 175.735 143.704 174.558 143.584 C 173.911 143.517,173.474 143.555,173.587 143.668 M180.341 143.668 C 180.454 143.782,180.984 143.836,181.518 143.789 L 182.489 143.704 181.312 143.584 C 180.665 143.517,180.228 143.555,180.341 143.668 M150.660 143.769 C 151.040 143.827,151.603 143.825,151.911 143.766 C 152.219 143.706,151.907 143.659,151.220 143.661 C 150.532 143.663,150.280 143.712,150.660 143.769 M201.692 143.769 C 202.072 143.827,202.635 143.825,202.943 143.766 C 203.250 143.706,202.939 143.659,202.251 143.661 C 201.563 143.663,201.312 143.712,201.692 143.769 M231.841 143.774 C 232.568 143.825,233.693 143.825,234.342 143.773 C 234.991 143.722,234.396 143.680,233.021 143.681 C 231.645 143.682,231.114 143.724,231.841 143.774 M271.990 143.774 C 272.648 143.826,273.661 143.825,274.241 143.773 C 274.822 143.720,274.284 143.678,273.046 143.679 C 271.807 143.679,271.332 143.722,271.990 143.774 M280.746 143.774 C 281.403 143.826,282.416 143.825,282.997 143.773 C 283.578 143.720,283.039 143.678,281.801 143.679 C 280.563 143.679,280.088 143.722,280.746 143.774 M303.877 143.773 C 304.462 143.826,305.419 143.826,306.004 143.773 C 306.588 143.720,306.110 143.677,304.941 143.677 C 303.771 143.677,303.293 143.720,303.877 143.773 M256.723 144.269 C 257.101 144.327,257.720 144.327,258.099 144.269 C 258.477 144.212,258.168 144.165,257.411 144.165 C 256.654 144.165,256.345 144.212,256.723 144.269 " stroke="none" fill="#3c3c3c" fill-rule="evenodd"></path><path id="path6" d="M180.929 117.503 C 181.309 117.560,181.872 117.559,182.180 117.499 C 182.487 117.440,182.176 117.393,181.488 117.395 C 180.801 117.397,180.549 117.445,180.929 117.503 M271.990 117.508 C 272.648 117.559,273.661 117.559,274.241 117.506 C 274.822 117.454,274.284 117.411,273.046 117.412 C 271.807 117.413,271.332 117.456,271.990 117.508 M179.948 119.450 C 179.949 120.550,179.993 120.970,180.046 120.381 C 180.099 119.793,180.098 118.892,180.044 118.380 C 179.990 117.868,179.947 118.349,179.948 119.450 M229.894 130.582 C 229.894 137.736,229.978 143.590,230.081 143.590 C 230.184 143.590,230.269 137.736,230.269 130.582 C 230.269 123.427,230.184 117.573,230.081 117.573 C 229.978 117.573,229.894 123.427,229.894 130.582 M173.223 132.458 C 173.223 138.512,173.256 140.952,173.296 137.882 C 173.335 134.811,173.335 129.858,173.296 126.875 C 173.256 123.892,173.223 126.404,173.223 132.458 M179.976 133.834 C 179.976 139.131,180.009 141.298,180.050 138.649 C 180.090 136.001,180.090 131.667,180.050 129.018 C 180.009 126.370,179.976 128.537,179.976 133.834 " stroke="none" fill="#747474" fill-rule="evenodd"></path><path id="path7" d="M270.753 119.575 C 270.753 120.607,270.797 121.029,270.851 120.513 C 270.905 119.997,270.905 119.153,270.851 118.637 C 270.797 118.121,270.753 118.543,270.753 119.575 M302.535 120.700 C 302.535 122.351,302.576 122.994,302.624 122.129 C 302.673 121.264,302.673 119.913,302.624 119.127 C 302.574 118.341,302.534 119.049,302.535 120.700 M216.576 123.504 C 216.887 123.564,217.337 123.562,217.576 123.499 C 217.816 123.436,217.561 123.387,217.011 123.390 C 216.460 123.393,216.265 123.444,216.576 123.504 M270.783 133.834 C 270.783 139.131,270.816 141.298,270.856 138.649 C 270.897 136.001,270.897 131.667,270.856 129.018 C 270.816 126.370,270.783 128.537,270.783 133.834 M302.550 135.835 C 302.550 140.031,302.584 141.748,302.626 139.650 C 302.668 137.552,302.668 134.118,302.626 132.020 C 302.584 129.922,302.550 131.639,302.550 135.835 M189.225 137.961 C 189.225 140.988,189.261 142.192,189.305 140.637 C 189.349 139.081,189.349 136.605,189.305 135.133 C 189.261 133.662,189.225 134.934,189.225 137.961 M203.483 137.836 C 203.483 140.794,203.520 142.004,203.564 140.525 C 203.608 139.046,203.608 136.626,203.564 135.147 C 203.520 133.668,203.483 134.878,203.483 137.836 " stroke="none" fill="#343434" fill-rule="evenodd"></path><path id="path8" d="M182.450 119.450 C 182.451 120.550,182.495 120.970,182.547 120.381 C 182.600 119.793,182.600 118.892,182.546 118.380 C 182.492 117.868,182.449 118.349,182.450 119.450 M230.510 130.582 C 230.510 137.805,230.542 140.760,230.581 137.148 C 230.620 133.537,230.620 127.627,230.581 124.015 C 230.542 120.403,230.510 123.358,230.510 130.582 M302.564 120.802 C 302.564 122.577,302.649 123.978,302.752 123.914 C 302.855 123.850,302.939 122.397,302.939 120.686 C 302.939 118.974,302.855 117.573,302.752 117.573 C 302.649 117.573,302.564 119.026,302.564 120.802 M306.987 120.623 C 306.962 122.369,307.026 123.850,307.129 123.915 C 307.233 123.979,307.287 123.057,307.250 121.866 C 307.126 117.868,307.032 117.425,306.987 120.623 M175.726 130.582 C 175.726 137.530,175.758 140.372,175.797 136.898 C 175.836 133.424,175.836 127.739,175.797 124.265 C 175.758 120.791,175.726 123.634,175.726 130.582 M256.723 123.506 C 257.101 123.564,257.720 123.564,258.099 123.506 C 258.477 123.449,258.168 123.402,257.411 123.402 C 256.654 123.402,256.345 123.449,256.723 123.506 M194.934 123.756 C 195.313 123.814,195.932 123.814,196.310 123.756 C 196.689 123.699,196.379 123.652,195.622 123.652 C 194.866 123.652,194.556 123.699,194.934 123.756 M288.868 123.754 C 289.178 123.813,289.684 123.813,289.994 123.754 C 290.303 123.694,290.050 123.645,289.431 123.645 C 288.812 123.645,288.558 123.694,288.868 123.754 M182.478 133.834 C 182.478 139.268,182.511 141.492,182.551 138.774 C 182.592 136.057,182.592 131.610,182.551 128.893 C 182.511 126.176,182.478 128.399,182.478 133.834 M279.539 133.834 C 279.539 139.268,279.572 141.492,279.612 138.774 C 279.652 136.057,279.652 131.610,279.612 128.893 C 279.572 126.176,279.539 128.399,279.539 133.834 M302.634 135.835 C 302.595 140.100,302.649 143.590,302.752 143.590 C 302.855 143.590,302.939 140.100,302.939 135.835 C 302.939 131.570,302.886 128.080,302.821 128.080 C 302.756 128.080,302.672 131.570,302.634 135.835 M307.053 135.835 C 307.053 140.169,307.087 141.942,307.129 139.775 C 307.171 137.608,307.171 134.062,307.129 131.895 C 307.087 129.728,307.053 131.501,307.053 135.835 M98.812 128.893 C 98.812 128.996,99.149 129.081,99.562 129.081 C 99.975 129.081,100.313 128.996,100.313 128.893 C 100.313 128.790,99.975 128.705,99.562 128.705 C 99.149 128.705,98.812 128.790,98.812 128.893 M206.701 133.709 C 206.703 134.396,206.751 134.648,206.809 134.268 C 206.866 133.888,206.865 133.325,206.805 133.017 C 206.746 132.710,206.699 133.021,206.701 133.709 M251.470 133.709 C 251.473 134.259,251.524 134.455,251.584 134.143 C 251.644 133.832,251.642 133.382,251.579 133.143 C 251.516 132.904,251.467 133.158,251.470 133.709 M236.460 133.516 C 236.976 133.570,237.821 133.570,238.336 133.516 C 238.852 133.462,238.430 133.417,237.398 133.417 C 236.366 133.417,235.944 133.462,236.460 133.516 M235.345 138.587 C 235.305 141.201,235.356 143.340,235.460 143.340 C 235.563 143.340,235.647 141.201,235.647 138.587 C 235.647 135.972,235.596 133.834,235.533 133.834 C 235.470 133.834,235.385 135.973,235.345 138.587 M292.349 134.251 C 292.071 134.529,292.152 143.590,292.433 143.590 C 292.591 143.590,292.683 141.839,292.683 138.837 C 292.683 136.223,292.645 134.084,292.600 134.084 C 292.554 134.084,292.441 134.159,292.349 134.251 M99.252 137.513 C 99.564 137.573,100.014 137.570,100.253 137.508 C 100.492 137.445,100.238 137.396,99.687 137.399 C 99.137 137.402,98.941 137.453,99.252 137.513 M133.274 137.513 C 133.585 137.573,134.035 137.570,134.274 137.508 C 134.514 137.445,134.259 137.396,133.709 137.399 C 133.158 137.402,132.963 137.453,133.274 137.513 " stroke="none" fill="#272727" fill-rule="evenodd"></path></g></svg>